PathFileType	4	(X/Y/Z)	 New Session 105.trc
DataRate	CameraRate	NumFrames	NumMarkers	Units	OrigDataRate	OrigDataStartFrame	OrigNumFrames
100	100	22	14	m	100	623	711
Frame#	Time	C7			T8			IJ			PX			AA			AC			AI			TS			SC			GH			LE			ME			US			RS			
		X1	Y1	Z1	X2	Y2	Z2	X3	Y3	Z3	X4	Y4	Z4	X5	Y5	Z5	X6	Y6	Z6	X7	Y7	Z7	X8	Y8	Z8	X9	Y9	Z9	X10	Y10	Z10	X11	Y11	Z11	X12	Y12	Z12	X13	Y13	Z13	X14	Y14	Z14	
623	6.2300	0.034817	0.100361	0.158273	0.034246	-0.115744	0.224245	0.019985	-0.000360	-0.008997	0.024086	-0.143690	-0.077509	0.221474	0.016397	0.160530	0.178090	0.058345	0.083903	0.107423	0.021351	0.201773	0.112118	-0.098124	0.226239	0.043942	0.008396	-0.004423	0.236887	0.032812	0.122714	0.325666	-0.251476	0.093132	0.243126	-0.301862	0.110544	0.306551	-0.397618	-0.144768	0.292004	-0.322787	-0.165061	
624	6.2400	0.034864	0.100362	0.158287	0.034331	-0.115734	0.224257	0.019959	-0.000386	-0.008967	0.024053	-0.143712	-0.077489	0.221532	0.016429	0.160444	0.178100	0.058375	0.083855	0.107544	0.021340	0.201725	0.112249	-0.098125	0.226156	0.043904	0.008360	-0.004404	0.236915	0.032853	0.122633	0.325712	-0.251456	0.093081	0.243105	-0.301852	0.110473	0.306688	-0.397517	-0.144861	0.292134	-0.322697	-0.165132	
625	6.2500	0.034912	0.100363	0.158298	0.034414	-0.115726	0.224263	0.019919	-0.000425	-0.008942	0.024021	-0.143735	-0.077465	0.221590	0.016480	0.160356	0.178099	0.058408	0.083805	0.107652	0.021335	0.201678	0.112383	-0.098121	0.226094	0.043861	0.008323	-0.004388	0.236947	0.032898	0.122552	0.325735	-0.251425	0.093034	0.243081	-0.301825	0.110419	0.306766	-0.397428	-0.144932	0.292254	-0.322603	-0.165188	
626	6.2600	0.034956	0.100359	0.158303	0.034491	-0.115722	0.224262	0.019867	-0.000471	-0.008920	0.023991	-0.143761	-0.077439	0.221647	0.016542	0.160259	0.178089	0.058445	0.083746	0.107739	0.021339	0.201637	0.112515	-0.098110	0.226068	0.043821	0.008285	-0.004375	0.236977	0.032948	0.122470	0.325708	-0.251387	0.092999	0.243063	-0.301786	0.110375	0.306785	-0.397366	-0.144978	0.292351	-0.322523	-0.165231	
627	6.2700	0.034993	0.100346	0.158300	0.034559	-0.115719	0.224256	0.019812	-0.000517	-0.008900	0.023961	-0.143787	-0.077410	0.221706	0.016597	0.160157	0.178081	0.058481	0.083685	0.107805	0.021353	0.201603	0.112639	-0.098090	0.226095	0.043790	0.008249	-0.004364	0.237003	0.033005	0.122388	0.325635	-0.251347	0.092981	0.243048	-0.301754	0.110344	0.306760	-0.397335	-0.145000	0.292415	-0.322476	-0.165265	
628	6.2800	0.035024	0.100329	0.158288	0.034618	-0.115716	0.224253	0.019758	-0.000554	-0.008879	0.023931	-0.143815	-0.077377	0.221756	0.016637	0.160064	0.178074	0.058514	0.083629	0.107856	0.021375	0.201580	0.112753	-0.098062	0.226176	0.043769	0.008216	-0.004350	0.237023	0.033056	0.122305	0.325543	-0.251314	0.092976	0.243022	-0.301737	0.110335	0.306709	-0.397329	-0.145004	0.292444	-0.322464	-0.165291	
629	6.2900	0.035045	0.100315	0.158278	0.034670	-0.115713	0.224261	0.019710	-0.000576	-0.008856	0.023899	-0.143842	-0.077341	0.221787	0.016672	0.159986	0.178058	0.058539	0.083583	0.107901	0.021405	0.201565	0.112855	-0.098028	0.226294	0.043753	0.008186	-0.004331	0.237036	0.033095	0.122229	0.325459	-0.251294	0.092978	0.242982	-0.301727	0.110344	0.306645	-0.397337	-0.144995	0.292443	-0.322472	-0.165308	
630	6.3000	0.035052	0.100315	0.158286	0.034718	-0.115709	0.224289	0.019665	-0.000586	-0.008829	0.023866	-0.143869	-0.077302	0.221804	0.016717	0.159911	0.178035	0.058559	0.083550	0.107945	0.021440	0.201556	0.112945	-0.097994	0.226413	0.043739	0.008163	-0.004307	0.237043	0.033132	0.122162	0.325393	-0.251289	0.092983	0.242926	-0.301713	0.110360	0.306574	-0.397350	-0.144978	0.292419	-0.322481	-0.165316	
631	6.3100	0.035048	0.100323	0.158309	0.034763	-0.115705	0.224345	0.019618	-0.000591	-0.008799	0.023831	-0.143896	-0.077261	0.221822	0.016769	0.159844	0.178014	0.058578	0.083523	0.107988	0.021477	0.201549	0.113019	-0.097965	0.226489	0.043719	0.008150	-0.004280	0.237044	0.033178	0.122104	0.325344	-0.251293	0.092985	0.242861	-0.301690	0.110373	0.306498	-0.397363	-0.144959	0.292375	-0.322479	-0.165316	
632	6.3200	0.035040	0.100335	0.158340	0.034807	-0.115702	0.224426	0.019561	-0.000600	-0.008767	0.023796	-0.143922	-0.077219	0.221852	0.016816	0.159795	0.177993	0.058595	0.083495	0.108027	0.021509	0.201541	0.113079	-0.097944	0.226500	0.043691	0.008146	-0.004253	0.237040	0.033227	0.122053	0.325306	-0.251303	0.092982	0.242791	-0.301666	0.110377	0.306417	-0.397371	-0.144944	0.292313	-0.322471	-0.165309	
633	6.3300	0.035041	0.100345	0.158371	0.034850	-0.115700	0.224521	0.019482	-0.000624	-0.008727	0.023761	-0.143948	-0.077175	0.221887	0.016856	0.159764	0.177971	0.058610	0.083464	0.108061	0.021533	0.201536	0.113123	-0.097931	0.226459	0.043655	0.008150	-0.004224	0.237034	0.033269	0.122010	0.325273	-0.251312	0.092972	0.242722	-0.301647	0.110374	0.306336	-0.397377	-0.144933	0.292234	-0.322474	-0.165302	
634	6.3400	0.035052	0.100349	0.158400	0.034891	-0.115699	0.224608	0.019380	-0.000659	-0.008679	0.023727	-0.143974	-0.077129	0.221908	0.016890	0.159742	0.177955	0.058621	0.083439	0.108091	0.021548	0.201536	0.113153	-0.097924	0.226394	0.043615	0.008154	-0.004194	0.237031	0.033297	0.121971	0.325239	-0.251319	0.092956	0.242657	-0.301634	0.110373	0.306256	-0.397387	-0.144925	0.292138	-0.322501	-0.165294	
635	6.3500	0.035065	0.100348	0.158428	0.034928	-0.115699	0.224671	0.019266	-0.000699	-0.008622	0.023694	-0.144000	-0.077082	0.221917	0.016918	0.159726	0.177946	0.058630	0.083425	0.108112	0.021557	0.201544	0.113171	-0.097923	0.226331	0.043580	0.008158	-0.004161	0.237028	0.033313	0.121939	0.325200	-0.251321	0.092939	0.242595	-0.301625	0.110384	0.306165	-0.397406	-0.144914	0.292034	-0.322551	-0.165285	
636	6.3600	0.035071	0.100345	0.158460	0.034961	-0.115700	0.224716	0.019160	-0.000733	-0.008563	0.023662	-0.144023	-0.077033	0.221919	0.016941	0.159717	0.177935	0.058643	0.083418	0.108126	0.021562	0.201559	0.113179	-0.097926	0.226277	0.043555	0.008165	-0.004129	0.237017	0.033325	0.121919	0.325156	-0.251318	0.092927	0.242534	-0.301622	0.110421	0.306048	-0.397438	-0.144892	0.291926	-0.322609	-0.165270	
637	6.3700	0.035063	0.100342	0.158497	0.034991	-0.115704	0.224771	0.019076	-0.000754	-0.008509	0.023631	-0.144044	-0.076982	0.221913	0.016966	0.159716	0.177917	0.058660	0.083419	0.108132	0.021568	0.201581	0.113182	-0.097934	0.226233	0.043543	0.008181	-0.004098	0.236995	0.033344	0.121910	0.325112	-0.251311	0.092927	0.242472	-0.301623	0.110486	0.305893	-0.397479	-0.144851	0.291818	-0.322659	-0.165247	
638	6.3800	0.035039	0.100337	0.158541	0.035018	-0.115711	0.224855	0.019017	-0.000759	-0.008459	0.023600	-0.144061	-0.076931	0.221896	0.017001	0.159719	0.177892	0.058674	0.083428	0.108131	0.021575	0.201606	0.113185	-0.097946	0.226199	0.043537	0.008200	-0.004065	0.236972	0.033373	0.121909	0.325085	-0.251303	0.092939	0.242403	-0.301625	0.110568	0.305705	-0.397518	-0.144788	0.291711	-0.322692	-0.165215	
639	6.3900	0.035001	0.100329	0.158592	0.035039	-0.115722	0.224968	0.018979	-0.000752	-0.008412	0.023569	-0.144075	-0.076880	0.221870	0.017043	0.159725	0.177860	0.058686	0.083443	0.108129	0.021580	0.201635	0.113191	-0.097959	0.226174	0.043527	0.008213	-0.004026	0.236949	0.033407	0.121913	0.325095	-0.251294	0.092965	0.242326	-0.301622	0.110649	0.305512	-0.397546	-0.144719	0.291605	-0.322707	-0.165178	
640	6.4000	0.034956	0.100319	0.158651	0.035054	-0.115734	0.225087	0.018953	-0.000742	-0.008366	0.023539	-0.144087	-0.076827	0.221847	0.017083	0.159738	0.177823	0.058699	0.083457	0.108130	0.021584	0.201668	0.113201	-0.097971	0.226166	0.043509	0.008209	-0.003977	0.236922	0.033437	0.121915	0.325168	-0.251280	0.093003	0.242249	-0.301613	0.110718	0.305343	-0.397565	-0.144658	0.291498	-0.322709	-0.165139	
641	6.4100	0.034916	0.100303	0.158716	0.035061	-0.115745	0.225192	0.018933	-0.000734	-0.008318	0.023509	-0.144097	-0.076773	0.221839	0.017114	0.159750	0.177790	0.058709	0.083476	0.108135	0.021585	0.201708	0.113212	-0.097979	0.226179	0.043481	0.008189	-0.003920	0.236891	0.033461	0.121918	0.325309	-0.251255	0.093050	0.242179	-0.301601	0.110764	0.305210	-0.397578	-0.144613	0.291391	-0.322702	-0.165099	
642	6.4200	0.034887	0.100282	0.158776	0.035063	-0.115755	0.225274	0.018916	-0.000732	-0.008265	0.023481	-0.144107	-0.076717	0.221844	0.017140	0.159762	0.177762	0.058714	0.083508	0.108142	0.021585	0.201756	0.113224	-0.097984	0.226217	0.043447	0.008166	-0.003856	0.236867	0.033486	0.121933	0.325481	-0.251219	0.093103	0.242113	-0.301590	0.110788	0.305110	-0.397584	-0.144579	0.291288	-0.322685	-0.165059	
643	6.4300	0.034870	0.100253	0.158825	0.035061	-0.115766	0.225337	0.018898	-0.000734	-0.008210	0.023455	-0.144115	-0.076659	0.221842	0.017170	0.159784	0.177732	0.058726	0.083549	0.108145	0.021582	0.201813	0.113236	-0.097985	0.226282	0.043412	0.008152	-0.003787	0.236850	0.033518	0.121966	0.325621	-0.251179	0.093157	0.242049	-0.301578	0.110802	0.305023	-0.397576	-0.144548	0.291190	-0.322657	-0.165015	
644	6.4400	0.034856	0.100217	0.158865	0.035057	-0.115779	0.225390	0.018876	-0.000737	-0.008154	0.023431	-0.144122	-0.076600	0.221819	0.017206	0.159821	0.177698	0.058746	0.083592	0.108140	0.021577	0.201874	0.113244	-0.097984	0.226369	0.043379	0.008153	-0.003718	0.236832	0.033559	0.122004	0.325687	-0.251142	0.093208	0.241987	-0.301561	0.110819	0.304939	-0.397551	-0.144513	0.291102	-0.322613	-0.164966	
